<svg width="25" height="23" viewBox="0 0 25 23" fill="none" xmlns="http://www.w3.org/2000/svg">
<path d="M19.5833 8.01449C19.5833 6.15413 18.8107 4.36997 17.4355 3.0545C16.0602 1.73902 14.1949 1 12.25 1C10.3051 1 8.43982 1.73902 7.06455 3.0545C5.68928 4.36997 4.91667 6.15413 4.91667 8.01449C4.91667 13.9484 2.46304 16.809 1.11406 17.9333C0.911495 18.1021 1.04337 18.5362 1.30706 18.5362H7.77214C7.8891 18.5362 7.99073 18.6154 8.02521 18.7271C8.24911 19.4529 9.24866 22 12.25 22C15.2513 22 16.2509 19.4529 16.4748 18.7271C16.5093 18.6154 16.6109 18.5362 16.7279 18.5362H23.1929C23.4566 18.5362 23.5885 18.1021 23.3859 17.9333C22.037 16.809 19.5833 13.9484 19.5833 8.01449Z" stroke="#4F4F4F" stroke-width="2" stroke-linecap="round" stroke-linejoin="round"/>
</svg>
