<svg width="61" height="48" viewBox="0 0 61 48" fill="none" xmlns="http://www.w3.org/2000/svg">
<path d="M9.91992 37.3501L5.03466 47.9911L0.149414 37.3501H2.52987L5.03466 42.7949L7.53058 37.3501H9.91992Z" fill="url(#paint0_linear_1_12849)"/>
<path d="M15.8177 48H13.6593V45.8416H15.8177H16.1907H16.9812H17.3188C18.1182 45.8416 18.8199 45.5574 19.4239 44.9978C20.0367 44.4382 20.3654 43.7365 20.4098 42.9016C20.4098 42.8927 20.4098 42.8838 20.4098 42.875C20.4098 42.8483 20.4098 42.8306 20.4187 42.8217C20.4187 42.8128 20.4187 42.8039 20.4187 42.795C20.4187 42.7861 20.4187 42.7684 20.4187 42.7595C20.4187 42.7417 20.4187 42.7328 20.4187 42.7151C20.4187 42.1022 20.2677 41.5249 19.9746 41.0008C19.6726 40.4768 19.2196 40.0682 18.6156 39.7839C18.6067 39.7839 18.5889 39.7751 18.5801 39.7751C18.5712 39.7751 18.5623 39.7662 18.5534 39.7573C18.5445 39.7573 18.5268 39.7484 18.4912 39.7306C18.3047 39.6507 18.1093 39.5885 17.905 39.5441C17.8961 39.5441 17.8784 39.5441 17.8695 39.5441C17.8606 39.5441 17.8428 39.5441 17.8339 39.5441C17.6829 39.5175 17.5142 39.4997 17.3099 39.4997H16.9724H16.1818H15.8088H13.6504V37.3413H15.8088H17.0701H17.6119C17.6918 37.3413 17.7629 37.3413 17.8162 37.3502C19.1485 37.4745 20.2766 38.0341 21.2003 39.0378C22.133 40.0415 22.5948 41.2229 22.5948 42.5907C22.5948 42.6174 22.5948 42.6351 22.5948 42.6618C22.5948 42.6884 22.5948 42.7062 22.5948 42.7329C22.5948 44.1007 22.133 45.2821 21.2003 46.2858C20.2677 47.2895 19.1396 47.849 17.8162 47.9734C17.7718 47.9823 17.7274 47.9912 17.6829 47.9912H17.6119H17.0701H15.8177V48Z" fill="url(#paint1_linear_1_12849)"/>
<path d="M36.1316 42.6883C36.1316 43.4345 35.9895 44.1273 35.7141 44.7668C35.4388 45.4063 35.0568 45.9659 34.5683 46.4455C34.0886 46.9252 33.5202 47.3071 32.8718 47.5825C32.2323 47.8578 31.5394 47.9999 30.7933 47.9999C30.0472 47.9999 29.3544 47.8578 28.7149 47.5825C28.0665 47.3071 27.498 46.9252 27.0184 46.4367C26.5209 45.9481 26.139 45.3886 25.8725 44.7579C25.5972 44.1095 25.4551 43.4167 25.4551 42.6795C25.4551 41.9511 25.5972 41.2583 25.8725 40.6188C26.139 39.9793 26.5298 39.4108 27.0184 38.9134C27.5069 38.4249 28.0754 38.0429 28.7149 37.7676C29.3544 37.4922 30.0472 37.3501 30.7933 37.3501C31.5483 37.3501 32.25 37.4922 32.8895 37.7676C33.5291 38.0518 34.0975 38.4337 34.5772 38.9223C35.0568 39.4019 35.4299 39.9704 35.7141 40.6277C35.9895 41.2672 36.1316 41.9511 36.1316 42.6883ZM33.9465 42.6883C33.9465 42.4219 33.911 42.1376 33.8311 41.8356C33.7422 41.5336 33.6179 41.2494 33.458 40.9829C33.2804 40.7076 33.0583 40.4589 32.7918 40.2368C32.5165 40.0059 32.1878 39.8283 31.8059 39.6861C31.7171 39.6595 31.6194 39.6328 31.5306 39.624C31.4773 39.624 31.424 39.6151 31.3796 39.6062C31.3351 39.5973 31.2907 39.5884 31.2552 39.5796C31.2286 39.5796 31.122 39.5618 30.9532 39.5263C30.8022 39.5174 30.7311 39.5174 30.7489 39.5174C30.5357 39.5174 30.3048 39.544 30.065 39.6062C29.834 39.6684 29.5853 39.7572 29.3455 39.8815C29.0879 40.0148 28.857 40.1747 28.6616 40.3612C28.4573 40.5477 28.2619 40.7787 28.0931 41.054C27.8888 41.4004 27.7556 41.7291 27.7023 42.0488C27.6845 42.1376 27.6668 42.2442 27.6401 42.3686C27.6312 42.4752 27.6223 42.5818 27.6223 42.7061C27.6223 43.1413 27.7023 43.541 27.8711 43.9141C28.0221 44.2872 28.2441 44.6158 28.5461 44.9178C28.8303 45.2109 29.1679 45.4419 29.5498 45.6017C29.9317 45.7794 30.3403 45.8593 30.7756 45.8593C31.1841 45.8593 31.5927 45.7794 31.9924 45.6106C32.3655 45.4507 32.703 45.2287 32.9961 44.9444C33.2892 44.6602 33.5202 44.3316 33.6801 43.9496C33.8666 43.5588 33.9465 43.1413 33.9465 42.6883Z" fill="url(#paint2_linear_1_12849)"/>
<path d="M48.887 47.9911H46.7197L42.021 41.1872V47.9911H39.8359V37.3501H42.0121L46.7108 44.1539V37.3501H48.887V47.9911Z" fill="url(#paint3_linear_1_12849)"/>
<path d="M53.3096 39.5085V37.3501H60.8506V39.5085C59.5893 39.5085 58.3369 39.5085 57.0757 39.5085C55.8144 39.5085 54.562 39.5085 53.3096 39.5085ZM53.3096 43.7542V41.5958C54.1179 41.5958 54.9173 41.5958 55.7255 41.5958C56.5338 41.5958 57.3421 41.5958 58.1504 41.5958V43.7542C57.3421 43.7542 56.5338 43.7542 55.7255 43.7542C54.9173 43.7542 54.109 43.7542 53.3096 43.7542ZM60.8506 47.9911H53.3096V45.8238C54.562 45.8238 55.8233 45.8238 57.0757 45.8238C58.3281 45.8238 59.5893 45.8238 60.8506 45.8238V47.9911Z" fill="url(#paint4_linear_1_12849)"/>
<path d="M16.5279 44.2072H14.7959V41.4893H16.5279L17.4073 42.8482L16.5279 44.2072Z" fill="#E80A89"/>
<path d="M49.1528 0L30.5 31.4788L39.1869 2.15839C39.5688 0.879344 40.7413 0 42.0825 0H49.1528Z" fill="url(#paint5_linear_1_12849)"/>
<path d="M30.5004 31.4788L21.8136 2.15839C21.4316 0.879344 20.2592 0 18.9179 0H11.8477L30.5004 31.4788Z" fill="url(#paint6_linear_1_12849)"/>
<path d="M30.5004 30.6975L38.5299 3.10913L30.5004 16.9033L22.4619 3.10913L30.5004 30.6975Z" fill="#2FEFF4"/>
<defs>
<linearGradient id="paint0_linear_1_12849" x1="-0.453426" y1="42.55" x2="69.7165" y2="43.6159" gradientUnits="userSpaceOnUse">
<stop offset="0.0016835" stop-color="#23245E"/>
<stop offset="0.3569" stop-color="#252A6B"/>
<stop offset="0.443" stop-color="#264482"/>
<stop offset="0.6254" stop-color="#2885BC"/>
<stop offset="0.7896" stop-color="#2AC5F4"/>
</linearGradient>
<linearGradient id="paint1_linear_1_12849" x1="-0.451626" y1="42.426" x2="69.7184" y2="43.4919" gradientUnits="userSpaceOnUse">
<stop offset="0.0016835" stop-color="#23245E"/>
<stop offset="0.3569" stop-color="#252A6B"/>
<stop offset="0.443" stop-color="#264482"/>
<stop offset="0.6254" stop-color="#2885BC"/>
<stop offset="0.7896" stop-color="#2AC5F4"/>
</linearGradient>
<linearGradient id="paint2_linear_1_12849" x1="-0.44798" y1="42.1959" x2="69.722" y2="43.2618" gradientUnits="userSpaceOnUse">
<stop offset="0.0016835" stop-color="#23245E"/>
<stop offset="0.3569" stop-color="#252A6B"/>
<stop offset="0.443" stop-color="#264482"/>
<stop offset="0.6254" stop-color="#2885BC"/>
<stop offset="0.7896" stop-color="#2AC5F4"/>
</linearGradient>
<linearGradient id="paint3_linear_1_12849" x1="-0.444404" y1="41.9898" x2="69.7256" y2="43.0557" gradientUnits="userSpaceOnUse">
<stop offset="0.0016835" stop-color="#23245E"/>
<stop offset="0.3569" stop-color="#252A6B"/>
<stop offset="0.443" stop-color="#264482"/>
<stop offset="0.6254" stop-color="#2885BC"/>
<stop offset="0.7896" stop-color="#2AC5F4"/>
</linearGradient>
<linearGradient id="paint4_linear_1_12849" x1="-0.442221" y1="41.7967" x2="69.7277" y2="42.8625" gradientUnits="userSpaceOnUse">
<stop offset="0.0016835" stop-color="#23245E"/>
<stop offset="0.3569" stop-color="#252A6B"/>
<stop offset="0.443" stop-color="#264482"/>
<stop offset="0.6254" stop-color="#2885BC"/>
<stop offset="0.7896" stop-color="#2AC5F4"/>
</linearGradient>
<linearGradient id="paint5_linear_1_12849" x1="27.4744" y1="29.7225" x2="46.5713" y2="-3.14192" gradientUnits="userSpaceOnUse">
<stop offset="0.0016835" stop-color="#23245E"/>
<stop offset="0.3569" stop-color="#252A6B"/>
<stop offset="0.443" stop-color="#264482"/>
<stop offset="0.6254" stop-color="#2885BC"/>
<stop offset="0.7896" stop-color="#2AC5F4"/>
</linearGradient>
<linearGradient id="paint6_linear_1_12849" x1="32.1261" y1="30.5772" x2="12.5559" y2="-7.22895" gradientUnits="userSpaceOnUse">
<stop offset="0.0016835" stop-color="#23245E"/>
<stop offset="0.3569" stop-color="#252A6B"/>
<stop offset="0.443" stop-color="#264482"/>
<stop offset="0.6254" stop-color="#2885BC"/>
<stop offset="0.7896" stop-color="#2AC5F4"/>
</linearGradient>
</defs>
</svg>
