<svg width="31" height="30" viewBox="0 0 31 30" fill="none" xmlns="http://www.w3.org/2000/svg">
<path d="M26.0125 23.9874C26.7959 22.9373 27.3335 21.7247 27.5856 20.4392C27.8377 19.1536 27.7979 17.8278 27.4692 16.5596C27.1405 15.2914 26.5312 14.1133 25.6862 13.1121C24.8413 12.1109 23.7824 11.3121 22.5875 10.7749C22.3273 9.27751 21.7291 7.85916 20.8385 6.6276C19.948 5.39604 18.7884 4.38367 17.4479 3.66742C16.1075 2.95117 14.6214 2.54989 13.1026 2.49406C11.5838 2.43822 10.0722 2.72931 8.68281 3.34521C7.29338 3.9611 6.0626 4.8856 5.08401 6.04845C4.10542 7.2113 3.40476 8.58191 3.03526 10.0561C2.66577 11.5304 2.63716 13.0694 2.95162 14.5563C3.26607 16.0433 3.91532 17.439 4.85002 18.6374L3.11252 20.3624C2.93907 20.5382 2.82158 20.7614 2.77486 21.0039C2.72814 21.2464 2.75429 21.4972 2.85002 21.7249C2.94379 21.9532 3.10304 22.1486 3.30769 22.2865C3.51234 22.4244 3.75324 22.4987 4.00002 22.4999H11.1125C11.8208 23.9931 12.9376 25.2553 14.3335 26.1401C15.7293 27.025 17.3473 27.4964 19 27.4999H26.5C26.7468 27.4987 26.9877 27.4244 27.1923 27.2865C27.397 27.1486 27.5562 26.9532 27.65 26.7249C27.7457 26.4972 27.7719 26.2464 27.7252 26.0039C27.6785 25.7614 27.561 25.5382 27.3875 25.3624L26.0125 23.9874ZM10.25 18.7499C10.2517 19.1685 10.2852 19.5863 10.35 19.9999H7.01252L7.45002 19.5749C7.56718 19.4587 7.66017 19.3204 7.72363 19.1681C7.78709 19.0158 7.81977 18.8524 7.81977 18.6874C7.81977 18.5224 7.78709 18.359 7.72363 18.2067C7.66017 18.0543 7.56718 17.9161 7.45002 17.7999C6.74947 17.107 6.19408 16.2814 5.81634 15.3714C5.43859 14.4614 5.24607 13.4852 5.25002 12.4999C5.25002 10.5108 6.0402 8.60311 7.44672 7.19658C8.85324 5.79006 10.7609 4.99988 12.75 4.99988C14.3021 4.99056 15.8181 5.46786 17.0849 6.36471C18.3517 7.26156 19.3056 8.53285 19.8125 9.99988C19.5375 9.99988 19.275 9.99988 19 9.99988C16.6794 9.99988 14.4538 10.9218 12.8128 12.5627C11.1719 14.2036 10.25 16.4292 10.25 18.7499ZM23.425 24.9999L23.4875 25.0624H19C17.5542 25.0598 16.154 24.556 15.0379 23.6369C13.9219 22.7177 13.159 21.4401 12.8793 20.0216C12.5995 18.603 12.8203 17.1314 13.5039 15.8574C14.1874 14.5834 15.2916 13.5858 16.6282 13.0345C17.9648 12.4832 19.4512 12.4124 20.8342 12.8342C22.2171 13.2559 23.4111 14.144 24.2127 15.3473C25.0143 16.5506 25.3739 17.9946 25.2303 19.4333C25.0866 20.8719 24.4487 22.2163 23.425 23.2374C23.1895 23.4682 23.0547 23.7827 23.05 24.1124C23.0507 24.2778 23.0842 24.4414 23.1486 24.5937C23.2129 24.7461 23.3069 24.8841 23.425 24.9999V24.9999Z" fill="#4F4F4F"/>
</svg>
