<svg width="17" height="17" viewBox="0 0 17 17" fill="none" xmlns="http://www.w3.org/2000/svg">
<path d="M14.3884 1.64111C14.2067 1.64111 14.0324 1.7133 13.9039 1.84179C13.7754 1.97028 13.7032 2.14456 13.7032 2.32627V3.69659H12.3329V2.32627C12.3329 2.14456 12.2607 1.97028 12.1322 1.84179C12.0037 1.7133 11.8295 1.64111 11.6478 1.64111C11.466 1.64111 11.2918 1.7133 11.1633 1.84179C11.0348 1.97028 10.9626 2.14456 10.9626 2.32627V3.01143H5.48132V2.32627C5.48132 2.14456 5.40913 1.97028 5.28064 1.84179C5.15215 1.7133 4.97787 1.64111 4.79616 1.64111C4.61444 1.64111 4.44017 1.7133 4.31168 1.84179C4.18319 1.97028 4.111 2.14456 4.111 2.32627V3.69659H2.74068V2.32627C2.74068 2.14456 2.66849 1.97028 2.54 1.84179C2.41151 1.7133 2.23724 1.64111 2.05552 1.64111C1.87381 1.64111 1.69953 1.7133 1.57104 1.84179C1.44255 1.97028 1.37036 2.14456 1.37036 2.32627V14.6591C1.37036 14.8409 1.44255 15.0151 1.57104 15.1436C1.69953 15.2721 1.87381 15.3443 2.05552 15.3443C2.23724 15.3443 2.41151 15.2721 2.54 15.1436C2.66849 15.0151 2.74068 14.8409 2.74068 14.6591V13.2888H4.111V14.6591C4.111 14.8409 4.18319 15.0151 4.31168 15.1436C4.44017 15.2721 4.61444 15.3443 4.79616 15.3443C4.97787 15.3443 5.15215 15.2721 5.28064 15.1436C5.40913 15.0151 5.48132 14.8409 5.48132 14.6591V13.974H10.9626V14.6591C10.9626 14.8409 11.0348 15.0151 11.1633 15.1436C11.2918 15.2721 11.466 15.3443 11.6478 15.3443C11.8295 15.3443 12.0037 15.2721 12.1322 15.1436C12.2607 15.0151 12.3329 14.8409 12.3329 14.6591V13.2888H13.7032V14.6591C13.7032 14.8409 13.7754 15.0151 13.9039 15.1436C14.0324 15.2721 14.2067 15.3443 14.3884 15.3443C14.5701 15.3443 14.7444 15.2721 14.8729 15.1436C15.0014 15.0151 15.0736 14.8409 15.0736 14.6591V2.32627C15.0736 2.14456 15.0014 1.97028 14.8729 1.84179C14.7444 1.7133 14.5701 1.64111 14.3884 1.64111V1.64111ZM4.111 11.9185H2.74068V10.5482H4.111V11.9185ZM4.111 9.17787H2.74068V7.80755H4.111V9.17787ZM4.111 6.43723H2.74068V5.06691H4.111V6.43723ZM10.9626 12.6037H5.48132V9.17787H10.9626V12.6037ZM10.9626 7.80755H5.48132V4.38175H10.9626V7.80755ZM13.7032 11.9185H12.3329V10.5482H13.7032V11.9185ZM13.7032 9.17787H12.3329V7.80755H13.7032V9.17787ZM13.7032 6.43723H12.3329V5.06691H13.7032V6.43723Z" fill="#232323"/>
</svg>
