<svg width="9" height="7" viewBox="0 0 9 7" fill="none" xmlns="http://www.w3.org/2000/svg">
<path id="Vector" d="M1.2707 1.21667H7.7957C7.89184 1.21667 7.98405 1.16574 8.05203 1.0751C8.12001 0.984459 8.1582 0.861521 8.1582 0.733333C8.1582 0.605145 8.12001 0.482208 8.05203 0.391565C7.98405 0.300923 7.89184 0.25 7.7957 0.25H1.2707C1.17456 0.25 1.08236 0.300923 1.01438 0.391565C0.946395 0.482208 0.908203 0.605145 0.908203 0.733333C0.908203 0.861521 0.946395 0.984459 1.01438 1.0751C1.08236 1.16574 1.17456 1.21667 1.2707 1.21667ZM7.7957 5.08333H1.2707C1.17456 5.08333 1.08236 5.13426 1.01438 5.2249C0.946395 5.31554 0.908203 5.43848 0.908203 5.56667C0.908203 5.69485 0.946395 5.81779 1.01438 5.90844C1.08236 5.99908 1.17456 6.05 1.2707 6.05H7.7957C7.89184 6.05 7.98405 5.99908 8.05203 5.90844C8.12001 5.81779 8.1582 5.69485 8.1582 5.56667C8.1582 5.43848 8.12001 5.31554 8.05203 5.2249C7.98405 5.13426 7.89184 5.08333 7.7957 5.08333ZM7.7957 2.66667H1.2707C1.17456 2.66667 1.08236 2.71759 1.01438 2.80823C0.946395 2.89887 0.908203 3.02181 0.908203 3.15C0.908203 3.27819 0.946395 3.40113 1.01438 3.49177C1.08236 3.58241 1.17456 3.63333 1.2707 3.63333H7.7957C7.89184 3.63333 7.98405 3.58241 8.05203 3.49177C8.12001 3.40113 8.1582 3.27819 8.1582 3.15C8.1582 3.02181 8.12001 2.89887 8.05203 2.80823C7.98405 2.71759 7.89184 2.66667 7.7957 2.66667Z" fill="#4F4F4F"/>
</svg>
