<svg width="16" height="14" viewBox="0 0 16 14" fill="none" xmlns="http://www.w3.org/2000/svg">
<path d="M4.22567 7.23438C3.00922 7.23438 2.01953 8.22406 2.01953 9.44052C2.01953 10.657 3.00922 11.6467 4.22567 11.6467C5.44213 11.6467 6.43182 10.657 6.43182 9.44052C6.43182 8.22406 5.44213 7.23438 4.22567 7.23438ZM4.22567 10.7145C3.52322 10.7145 2.9517 10.143 2.9517 9.44052C2.9517 8.73806 3.52322 8.16655 4.22567 8.16655C4.92813 8.16655 5.49965 8.73806 5.49965 9.44052C5.49965 10.143 4.92813 10.7145 4.22567 10.7145Z" fill="#232323"/>
<path d="M13.423 7.73145H8.45144C8.19403 7.73145 7.98535 7.94013 7.98535 8.19753C7.98535 8.45494 8.19403 8.66362 8.45144 8.66362H13.423C13.6804 8.66362 13.8891 8.45494 13.8891 8.19753C13.8891 7.94013 13.6804 7.73145 13.423 7.73145Z" fill="#232323"/>
<path d="M13.423 10.2173H8.45144C8.19403 10.2173 7.98535 10.426 7.98535 10.6834C7.98535 10.9408 8.19403 11.1495 8.45144 11.1495H13.423C13.6804 11.1495 13.8891 10.9408 13.8891 10.6834C13.8891 10.426 13.6804 10.2173 13.423 10.2173Z" fill="#232323"/>
<path d="M14.0447 2.26269H13.742L7.34587 0.294656C7.0999 0.218963 6.83901 0.357049 6.76332 0.603081C6.68763 0.849112 6.82572 1.10993 7.07175 1.18563L10.5722 2.26269H1.86435C0.836346 2.26269 0 3.09904 0 4.12704V11.7709C0 12.7989 0.836346 13.6352 1.86435 13.6352H14.0447C15.0727 13.6352 15.9091 12.7989 15.9091 11.7709C15.9091 11.5283 15.9091 4.23501 15.9091 4.12704C15.9091 3.09904 15.0727 2.26269 14.0447 2.26269ZM0.932173 4.12704C0.932173 3.61304 1.35035 3.19486 1.86435 3.19486H14.0447C14.5587 3.19486 14.9769 3.61304 14.9769 4.12704V5.24565H4.69194V4.71741C4.69194 4.46001 4.48326 4.25133 4.22585 4.25133C3.96845 4.25133 3.75977 4.46001 3.75977 4.71741V5.24565H0.932173V4.12704ZM14.0447 12.703H1.86435C1.35035 12.703 0.932173 12.2849 0.932173 11.7709V6.17782H14.9769V11.7709C14.9769 12.2849 14.5587 12.703 14.0447 12.703Z" fill="#232323"/>
</svg>
