<svg width="17" height="17" viewBox="0 0 17 17" fill="none" xmlns="http://www.w3.org/2000/svg">
<path d="M3.42535 12.3327H6.33043C6.4206 12.3333 6.50999 12.316 6.59346 12.2819C6.67694 12.2478 6.75287 12.1975 6.81689 12.134L11.5582 7.38588L13.504 5.48114C13.5683 5.41745 13.6192 5.34167 13.654 5.25817C13.6888 5.17468 13.7067 5.08513 13.7067 4.99468C13.7067 4.90423 13.6888 4.81467 13.654 4.73118C13.6192 4.64769 13.5683 4.57191 13.504 4.50821L10.599 1.56888C10.5353 1.50466 10.4595 1.45369 10.376 1.4189C10.2925 1.38412 10.203 1.36621 10.1125 1.36621C10.0221 1.36621 9.9325 1.38412 9.84901 1.4189C9.76552 1.45369 9.68974 1.50466 9.62604 1.56888L7.69389 3.50788L2.93889 8.25604C2.87539 8.32006 2.82515 8.39598 2.79105 8.47946C2.75695 8.56294 2.73967 8.65233 2.74019 8.7425V11.6476C2.74019 11.8293 2.81238 12.0036 2.94087 12.1321C3.06936 12.2605 3.24364 12.3327 3.42535 12.3327ZM10.1125 3.02142L12.0515 4.96042L11.0786 5.93335L9.13958 3.99434L10.1125 3.02142ZM4.11051 9.02341L8.17351 4.96042L10.1125 6.89942L6.04951 10.9624H4.11051V9.02341ZM14.3879 13.7031H2.05503C1.87332 13.7031 1.69904 13.7752 1.57055 13.9037C1.44206 14.0322 1.36987 14.2065 1.36987 14.3882C1.36987 14.5699 1.44206 14.7442 1.57055 14.8727C1.69904 15.0012 1.87332 15.0734 2.05503 15.0734H14.3879C14.5696 15.0734 14.7439 15.0012 14.8724 14.8727C15.0009 14.7442 15.0731 14.5699 15.0731 14.3882C15.0731 14.2065 15.0009 14.0322 14.8724 13.9037C14.7439 13.7752 14.5696 13.7031 14.3879 13.7031Z" fill="#232323"/>
</svg>
