<svg width="16" height="16" viewBox="0 0 16 16" fill="none" xmlns="http://www.w3.org/2000/svg">
<g clip-path="url(#clip0_702_2101)">
<path d="M14.5108 2.79629H9.07977L11.0806 0.795443C11.2626 0.613421 11.2626 0.318326 11.0806 0.136304C10.8986 -0.0457187 10.6035 -0.0457187 10.4215 0.136304L7.95455 2.60324L5.48761 0.136273C5.30562 -0.0457497 5.01049 -0.0457497 4.82847 0.136273C4.64645 0.318295 4.64645 0.61339 4.82847 0.795412L6.82932 2.79629H1.39826C0.627259 2.79629 0 3.42355 0 4.19455V13.5784C0 14.3494 0.627259 14.9767 1.39826 14.9767H2.79652V15.4428C2.79652 15.7002 3.0052 15.9089 3.26261 15.9089C3.52001 15.9089 3.72869 15.7002 3.72869 15.4428V14.9767H12.1804V15.4428C12.1804 15.7002 12.3891 15.9089 12.6465 15.9089C12.9039 15.9089 13.1126 15.7002 13.1126 15.4428V14.9767H14.5108C15.2818 14.9767 15.9091 14.3494 15.9091 13.5784V4.19455C15.9091 3.42355 15.2819 2.79629 14.5108 2.79629ZM14.9769 13.5784C14.9769 13.8354 14.7678 14.0445 14.5108 14.0445H1.39826C1.14126 14.0445 0.932173 13.8354 0.932173 13.5784V4.19455C0.932173 3.93755 1.14126 3.72846 1.39826 3.72846H14.5108C14.7678 3.72846 14.9769 3.93755 14.9769 4.19455V13.5784Z" fill="#232323"/>
<path d="M11.7142 4.66089H2.33034C2.07294 4.66089 1.86426 4.86957 1.86426 5.12698V12.6465C1.86426 12.9039 2.07294 13.1126 2.33034 13.1126H11.7142C11.9716 13.1126 12.1803 12.9039 12.1803 12.6465V5.12698C12.1803 4.86957 11.9716 4.66089 11.7142 4.66089ZM11.2481 12.1804H2.79643V5.59306H11.2481V12.1804Z" fill="#232323"/>
<path d="M13.5784 6.52519C13.8358 6.52519 14.0445 6.31652 14.0445 6.0591C14.0445 5.80169 13.8358 5.59302 13.5784 5.59302C13.321 5.59302 13.1123 5.80169 13.1123 6.0591C13.1123 6.31652 13.321 6.52519 13.5784 6.52519Z" fill="#232323"/>
<path d="M13.5784 8.38945C13.8358 8.38945 14.0445 8.18077 14.0445 7.92336C14.0445 7.66595 13.8358 7.45728 13.5784 7.45728C13.321 7.45728 13.1123 7.66595 13.1123 7.92336C13.1123 8.18077 13.321 8.38945 13.5784 8.38945Z" fill="#232323"/>
<path d="M13.5784 9.32178C13.321 9.32178 13.1123 9.53046 13.1123 9.78786V11.7144C13.1123 11.9718 13.321 12.1804 13.5784 12.1804C13.8358 12.1804 14.0445 11.9718 14.0445 11.7144V9.78786C14.0445 9.53046 13.8358 9.32178 13.5784 9.32178Z" fill="#232323"/>
</g>
<defs>
<clipPath id="clip0_702_2101">
<rect width="15.9091" height="15.9091" fill="white"/>
</clipPath>
</defs>
</svg>
