<svg width="17" height="17" viewBox="0 0 17 17" fill="none" xmlns="http://www.w3.org/2000/svg">
<path d="M10.9631 7.48023L7.53729 5.50012C7.32908 5.37991 7.0929 5.3166 6.85248 5.31653C6.61206 5.31647 6.37585 5.37967 6.16758 5.49977C5.9593 5.61987 5.78629 5.79266 5.66592 6.00078C5.54555 6.2089 5.48206 6.44503 5.48181 6.68545V10.6457C5.48206 10.886 5.54549 11.122 5.66575 11.33C5.78601 11.5381 5.95886 11.7108 6.16697 11.831C6.37528 11.9513 6.61159 12.0146 6.85213 12.0146C7.09267 12.0146 7.32897 11.9513 7.53729 11.831L10.9631 9.85088C11.1707 9.73043 11.3431 9.55753 11.4629 9.3495C11.5827 9.14148 11.6458 8.90562 11.6458 8.66556C11.6458 8.42549 11.5827 8.18964 11.4629 7.98161C11.3431 7.77359 11.1707 7.60069 10.9631 7.48023V7.48023ZM10.2779 8.66556L6.85213 10.6457V6.68545L10.2779 8.66556ZM8.22245 1.81396C6.86733 1.81396 5.54264 2.2158 4.4159 2.96867C3.28917 3.72153 2.41098 4.7916 1.8924 6.04357C1.37382 7.29553 1.23813 8.67316 1.5025 10.0022C1.76687 11.3313 2.41943 12.5522 3.37764 13.5104C4.33585 14.4686 5.55669 15.1211 6.88577 15.3855C8.21485 15.6499 9.59247 15.5142 10.8444 14.9956C12.0964 14.477 13.1665 13.5988 13.9193 12.4721C14.6722 11.3454 15.074 10.0207 15.074 8.66556C15.074 7.76579 14.8968 6.87484 14.5525 6.04357C14.2082 5.21229 13.7035 4.45698 13.0673 3.82075C12.431 3.18452 11.6757 2.67984 10.8444 2.33551C10.0132 1.99119 9.12221 1.81396 8.22245 1.81396V1.81396ZM8.22245 14.1468C7.13835 14.1468 6.0786 13.8254 5.17721 13.2231C4.27582 12.6208 3.57327 11.7647 3.15841 10.7632C2.74354 9.76158 2.635 8.65948 2.84649 7.59621C3.05799 6.53295 3.58003 5.55628 4.3466 4.78971C5.11317 4.02314 6.08984 3.5011 7.1531 3.2896C8.21637 3.07811 9.31847 3.18666 10.32 3.60152C11.3216 4.01639 12.1777 4.71893 12.78 5.62033C13.3822 6.52172 13.7037 7.58146 13.7037 8.66556C13.7037 10.1193 13.1262 11.5135 12.0983 12.5414C11.0704 13.5693 9.67617 14.1468 8.22245 14.1468V14.1468Z" fill="#232323"/>
</svg>
